<?xml version="1.0" standalone="no"?>
<!DOCTYPE svg PUBLIC "-//W3C//DTD SVG 20010904//EN"
 "http://www.w3.org/TR/2001/REC-SVG-20010904/DTD/svg10.dtd">
<svg version="1.0" xmlns="http://www.w3.org/2000/svg"
 width="500.000000pt" height="500.000000pt" viewBox="0 0 500.000000 500.000000"
 preserveAspectRatio="xMidYMid meet">
<metadata>
Created by potrace 1.11, written by Peter Selinger 2001-2013
</metadata>
<g transform="translate(0.000000,500.000000) scale(0.100000,-0.100000)"
fill="#000000" stroke="none">
<path d="M2444 4289 c-99 -19 -177 -78 -221 -167 l-28 -57 0 -430 c0 -429 0
-430 23 -473 35 -66 88 -119 150 -149 143 -70 326 -6 405 142 21 39 22 52 25
464 3 487 4 485 -79 575 -72 79 -174 115 -275 95z"/>
<path d="M10 4017 c0 -2 56 -55 126 -118 l125 -114 506 -140 507 -140 3 -104
c5 -171 57 -341 143 -466 46 -67 147 -172 208 -217 77 -57 190 -112 285 -139
81 -24 87 -24 587 -24 492 0 507 1 582 22 164 48 285 121 399 240 162 171 236
350 243 587 l2 101 507 140 506 140 126 114 c69 63 124 115 122 117 -2 3
-1343 -357 -1405 -377 -28 -9 -33 -15 -28 -33 17 -59 27 -179 22 -243 -9 -102
-30 -176 -78 -273 -34 -70 -58 -102 -137 -181 -79 -79 -111 -103 -181 -137
-135 -67 -185 -76 -415 -76 l-200 -1 -3 41 -3 42 53 12 c141 33 285 143 352
269 50 95 66 166 66 293 0 117 -5 128 -65 128 -58 0 -65 -12 -65 -113 0 -203
-75 -339 -226 -413 -158 -77 -345 -44 -465 83 -84 89 -118 191 -119 355 0 73
-11 88 -65 88 -59 0 -65 -12 -65 -119 0 -182 51 -314 164 -426 78 -77 168
-125 279 -149 25 -6 27 -10 27 -53 l0 -46 -202 6 c-229 6 -278 15 -405 77 -97
48 -221 158 -283 253 -90 138 -132 316 -111 477 6 47 13 95 17 107 7 27 62 10
-766 233 -349 94 -643 173 -652 176 -10 3 -18 3 -18 1z"/>
<path d="M498 3558 c37 -34 84 -78 104 -97 34 -31 59 -40 307 -106 l271 -72 0
69 c0 37 -2 68 -5 68 -3 0 -169 45 -369 100 -199 55 -366 100 -369 100 -3 0
25 -28 61 -62z"/>
<path d="M4285 3546 c-143 -40 -306 -85 -362 -100 l-103 -28 0 -68 0 -67 271
72 c248 66 273 75 307 106 141 131 169 159 159 158 -7 0 -129 -33 -272 -73z"/>
<path d="M910 3203 c153 -139 146 -135 228 -154 42 -10 82 -18 88 -19 8 0 4
25 -11 73 l-23 72 -143 36 c-79 19 -157 39 -174 43 -26 7 -22 0 35 -51z"/>
<path d="M3971 3217 l-163 -42 -23 -72 c-15 -48 -19 -73 -11 -73 6 1 46 9 88
19 82 19 85 21 222 148 38 34 65 63 60 62 -5 -1 -83 -20 -173 -42z"/>
<path d="M30 1890 l0 -452 133 4 c113 3 138 7 174 26 94 49 113 122 113 427 0
229 -9 303 -44 355 -41 63 -97 83 -248 88 l-128 5 0 -453z m235 316 c26 -11
36 -23 44 -53 15 -54 13 -488 -2 -533 -14 -41 -47 -60 -104 -60 l-43 0 0 330
0 330 35 0 c20 0 51 -6 70 -14z"/>
<path d="M560 1890 l0 -450 190 0 190 0 0 65 0 65 -125 0 -125 0 0 130 0 130
110 0 110 0 0 60 0 60 -110 0 -110 0 0 135 0 135 125 0 125 0 0 60 0 60 -190
0 -190 0 0 -450z"/>
<path d="M990 2331 c0 -9 163 -818 175 -869 5 -21 10 -23 62 -20 l56 3 89 430
c48 237 88 438 88 448 0 14 -10 17 -65 17 -36 0 -65 -3 -65 -6 0 -13 -101
-609 -104 -611 -2 -2 -24 128 -50 289 -26 161 -50 301 -52 311 -4 14 -17 17
-70 17 -35 0 -64 -4 -64 -9z"/>
<path d="M1543 1890 l-100 -450 63 0 c72 0 65 -10 87 115 l13 70 90 3 90 3 18
-96 18 -95 64 0 c62 0 64 1 59 23 -13 54 -195 870 -195 873 0 2 -24 4 -53 4
l-54 0 -100 -450z m187 19 c17 -85 30 -155 30 -156 0 -2 -29 -3 -65 -3 -63 0
-65 1 -60 23 2 12 16 84 31 160 15 75 29 136 31 134 2 -3 17 -73 33 -158z"/>
<path d="M2115 2321 c-84 -39 -119 -106 -118 -226 1 -137 33 -181 173 -241
121 -51 125 -56 125 -160 0 -82 -1 -87 -29 -111 -25 -21 -37 -24 -70 -20 -49
7 -74 34 -82 88 l-7 39 -58 0 -59 0 0 -45 c0 -123 89 -208 216 -209 92 0 150
33 188 106 25 50 28 66 29 155 0 78 -4 108 -20 144 -24 55 -52 75 -158 118
-103 42 -125 65 -125 134 0 93 46 140 115 117 40 -13 52 -30 61 -89 l7 -41 63
0 c61 0 64 1 64 25 0 95 -50 182 -124 216 -53 24 -139 24 -191 0z"/>
<path d="M2460 2280 l0 -59 73 -3 72 -3 3 -387 2 -388 60 0 60 0 2 388 3 387
73 3 72 3 0 59 0 60 -210 0 -210 0 0 -60z"/>
<path d="M2913 1890 l-100 -450 63 0 c72 0 65 -10 87 115 l13 70 90 3 90 3 18
-96 18 -95 64 0 c62 0 64 1 59 23 -13 54 -195 870 -195 873 0 2 -24 4 -53 4
l-54 0 -100 -450z m187 19 c17 -85 30 -155 30 -156 0 -2 -29 -3 -65 -3 -63 0
-65 1 -60 23 2 12 16 84 31 160 15 75 29 136 31 134 2 -3 17 -73 33 -158z"/>
<path d="M3250 2280 l0 -59 73 -3 72 -3 3 -387 2 -388 60 0 60 0 2 388 3 387
73 3 72 3 0 59 0 60 -210 0 -210 0 0 -60z"/>
<path d="M3737 2333 c-4 -3 -7 -206 -7 -450 l0 -443 65 0 65 0 0 450 0 450
-58 0 c-32 0 -62 -3 -65 -7z"/>
<path d="M4101 2318 c-63 -32 -99 -81 -112 -152 -6 -36 -9 -159 -7 -315 3
-207 6 -263 19 -291 76 -167 323 -165 394 2 12 31 15 89 15 331 0 284 -1 294
-22 337 -35 68 -93 104 -176 108 -55 3 -75 -1 -111 -20z m134 -112 c51 -22 57
-57 53 -340 -3 -210 -5 -245 -20 -269 -36 -54 -125 -42 -148 19 -13 34 -13
515 0 549 5 14 24 32 42 40 41 18 33 18 73 1z"/>
<path d="M4520 1890 l0 -450 60 0 60 0 0 267 c0 147 4 263 8 258 5 -6 51 -126
102 -267 l93 -258 59 0 58 0 0 450 0 450 -60 0 -60 0 -2 -272 -3 -273 -46 125
c-25 69 -70 191 -99 273 l-52 147 -59 0 -59 0 0 -450z"/>
<path d="M40 1030 l0 -210 30 0 30 0 0 85 0 85 76 0 c73 0 77 1 110 34 30 30
34 41 34 84 0 94 -56 132 -195 132 l-85 0 0 -210z m198 134 c22 -15 30 -66 14
-90 -14 -22 -51 -34 -101 -34 l-51 0 0 70 0 70 58 0 c36 0 66 -6 80 -16z"/>
<path d="M884 1226 c-17 -8 -42 -29 -55 -47 -22 -31 -24 -44 -24 -149 0 -105
2 -118 24 -149 58 -81 184 -81 242 0 22 31 24 44 24 149 0 104 -2 118 -23 148
-43 59 -118 78 -188 48z m112 -61 c35 -24 46 -67 42 -156 -3 -74 -6 -83 -31
-105 -36 -31 -78 -31 -114 0 -27 24 -28 27 -28 126 0 99 1 102 28 126 32 27
73 31 103 9z"/>
<path d="M1610 1029 l0 -211 93 4 c154 7 197 52 197 208 0 159 -50 209 -207
210 l-83 0 0 -211z m201 122 c28 -28 29 -33 29 -121 0 -88 -1 -93 -29 -121
-26 -25 -37 -29 -85 -29 l-56 0 0 150 0 150 56 0 c48 0 59 -4 85 -29z"/>
<path d="M2474 1226 c-17 -8 -42 -29 -55 -47 -22 -31 -24 -44 -24 -149 0 -105
2 -118 24 -149 41 -57 116 -76 186 -47 33 14 75 66 75 94 0 24 -51 13 -80 -18
-35 -38 -78 -40 -117 -6 -27 24 -28 27 -28 126 0 99 1 102 28 126 39 34 82 32
117 -6 17 -18 38 -30 54 -30 32 0 33 12 4 57 -35 58 -115 79 -184 49z"/>
<path d="M3199 1030 l-76 -210 31 0 c29 0 33 4 49 50 l18 50 79 0 79 0 18 -50
c16 -46 20 -50 49 -50 l31 0 -76 210 c-71 197 -78 210 -101 210 -23 0 -30 -13
-101 -210z m134 37 c15 -46 27 -86 27 -90 0 -4 -27 -7 -60 -7 -33 0 -60 3 -60
7 0 16 55 173 60 173 3 0 18 -37 33 -83z"/>
<path d="M3993 1224 c-31 -15 -63 -65 -63 -98 0 -35 30 -85 59 -101 17 -8 54
-20 83 -25 63 -12 78 -24 78 -61 0 -56 -88 -78 -162 -40 l-37 18 -22 -23 -22
-24 54 -25 c88 -41 194 -29 233 26 18 27 21 87 5 122 -14 32 -56 55 -120 67
-84 16 -112 57 -69 100 24 24 76 26 125 6 32 -14 34 -13 50 10 16 24 15 25
-27 44 -52 24 -122 25 -165 4z"/>
<path d="M4670 1215 c0 -22 4 -24 58 -27 l57 -3 3 -182 2 -183 30 0 30 0 0
185 0 185 55 0 c52 0 55 1 55 25 l0 25 -145 0 -145 0 0 -25z"/>
</g>
</svg>
